<svg width="64" height="64" viewBox="0 0 64 64" xmlns="http://www.w3.org/2000/svg">
  <defs>
    <linearGradient id="velo-blue" x1="0%" y1="0%" x2="100%" y2="100%">
      <stop offset="0%" stop-color="#5b8af0"/>
      <stop offset="100%" stop-color="#1f3b83"/>
    </linearGradient>
  </defs>
  <circle cx="24" cy="16" r="10" fill="url(#velo-blue)"/>
  <path d="M20 30c4-4 10-4 14 0l6 6-6 6-4-4-6 6-8-8 4-4z" fill="#1f3b83" opacity="0.9"/>
  <path d="M32 28l16-6-2 8-6 2 8 8-6 6-10-12z" fill="#5b8af0" opacity="0.85"/>
  <path d="M10 46l10-10 6 6-10 10c-2 2-6 2-8 0s-2-6 0-8z" fill="#1f3b83" opacity="0.7"/>
</svg>

